<svg xmlns="http://www.w3.org/2000/svg" viewBox="0 0 64 64"><g data-name="04-coconut tree"><path d="M36 59v2a2.006 2.006 0 0 1-2 2h-4a2.006 2.006 0 0 1-2-2v-2zM35.67 51l.16 4h-7.66l.16-4h7.34zM35.33 43l.17 4h-7l.17-4h6.66z" style="fill:#92563a"/><path style="fill:#c47952" d="m35.83 55 .17 4h-8l.17-4h7.66zM35.5 47l.17 4h-7.34l.17-4h7zM35.17 39l.16 4h-6.66l.16-4.01.17.01h6.17z"/><path style="fill:#f2c373" d="m35 35 .17 4H29l-.17-.01L29 35l1-1 2-8 2 8 1 1z"/><path d="m30 34-1 1-3 3-2-5 1 7-5 4s0-11.23 4.09-17.99C28.03 26.12 30 34 30 34zM39.91 26.01C44 32.77 44 44 44 44l-5-4 1-7-2 5-3-3-1-1s1.97-7.88 5.91-7.99z" style="fill:#008f57"/><path d="M44 12c7.19 0 14 7.16 14 16l-7-4s1-5 0-6l-2 5-3-2v-5l-3 4-3-1-1-3-2 3-5 2a7.854 7.854 0 0 1 3.02-5.97A13.98 13.98 0 0 1 44 12zM28.98 15.03A7.854 7.854 0 0 1 32 21l-5-2-2-3-1 3-3 1-3-4v5l-3 2-2-5c-1 1 0 6 0 6l-7 4c0-8.84 6.81-16 14-16a13.98 13.98 0 0 1 8.98 3.03z" style="fill:#00c477"/><path d="m38 11-3 4 .02.03A7.854 7.854 0 0 0 32 21v-3S33 1 47 1a13.382 13.382 0 0 1 10 4l-8 2-3-2v3l-6 2-2-1zM32 18v3a7.854 7.854 0 0 0-3.02-5.97L29 15l-3-4V9l-2 1-6-2V5l-3 2-8-2a13.382 13.382 0 0 1 10-4c14 0 15 17 15 17z" style="fill:#7bc24f"/><path d="m30.115 59.889.033-.889H28v2a2.006 2.006 0 0 0 2 2h3.113a3 3 0 0 1-2.998-3.111zM30.444 51H28.33l-.16 4h2.126l.148-4zM30.741 43H28.67l-.17 4h2.093l.148-4z" style="fill:#6f3529"/><path style="fill:#92563a" d="M30.296 55H28.17L28 59h2.148l.148-4zM30.593 47H28.5l-.17 4h2.114l.149-4zM30.889 39H29l-.17-.01-.16 4.01h2.071l.148-4z"/><path d="M30.889 39v-.111a3 3 0 0 1 3-2.889h1.151L35 35l-1-1-2-8-2 8-1 1-.17 3.99.17.01z" style="fill:#bf9259"/><path d="M33.791 59a1.494 1.494 0 0 0 1.108.5h.077A1.494 1.494 0 0 0 36 59.018V59zM33.248 55h2.582l-.16-4h-2.622l.2 4zM32.848 47H35.5l-.17-4h-2.682l.2 4z" style="fill:#c47952"/><path d="M33.4 58.075a1.487 1.487 0 0 0 .389.925H36l-.17-4h-2.582zM33.048 51h2.622l-.17-4h-2.652l.2 4zM34.024 40.5a1.5 1.5 0 0 0-1.424 1.575l.046.925h2.684l-.078-1.952a1.5 1.5 0 0 0-1.228-.548z" style="fill:#f09564"/><path d="M32 21v5l-2 8s-1.97-7.88-5.91-7.99C25.86 23.09 28.38 21 32 21zM39.91 26.01C35.97 26.12 34 34 34 34l-2-8v-5c3.62 0 6.14 2.09 7.91 5.01z" style="fill:#44853b"/><path d="M34.937 8.18A3.606 3.606 0 0 1 38 9l2 1 6-2V5s-1.826-1.815-6.333-1.983a14.457 14.457 0 0 0-4.73 5.163z" style="fill:#6cab46"/><path d="M34.937 8.18A25.53 25.53 0 0 0 32 18v3a7.854 7.854 0 0 1 3.02-5.97L35 15l3-4V9a3.606 3.606 0 0 0-3.063-.82z" style="fill:#538f2c"/><path d="M57 5a13.382 13.382 0 0 0-10-4 13.3 13.3 0 0 0-7.333 2.017C44.174 3.185 46 5 46 5l3 2zM17 1A13.382 13.382 0 0 0 7 5l8 2 3-2s1.826-1.815 6.333-1.983A13.3 13.3 0 0 0 17 1z" style="fill:#7bc24f"/><path d="M29.062 8.18A3.605 3.605 0 0 0 26 9v2l3 4-.02.03A7.854 7.854 0 0 1 32 21v-3a25.521 25.521 0 0 0-2.938-9.82z" style="fill:#538f2c"/><path d="M29.062 8.18a14.445 14.445 0 0 0-4.729-5.163C19.826 3.185 18 5 18 5v3l6 2 2-1a3.605 3.605 0 0 1 3.062-.82z" style="fill:#6cab46"/><path d="M44 12a15.09 15.09 0 0 0-6.114 1.254C39 13.976 39 16 39 16l1 3 3 1 3-4a9.991 9.991 0 0 0-.894-3.932A11.035 11.035 0 0 0 44 12z" style="fill:#44853b"/><path d="M58 28a16.672 16.672 0 0 0-7.531-14.044A6.606 6.606 0 0 1 51 18c1 1 0 6 0 6z" style="fill:#6cab46"/><path d="M37.886 13.254a12 12 0 0 0-2.866 1.776A7.854 7.854 0 0 0 32 21l5-2 2-3s0-2.024-1.114-2.746z" style="fill:#406e31"/><path d="M50.469 13.956a12.472 12.472 0 0 0-5.363-1.888A9.991 9.991 0 0 1 46 16v5l3 2 2-5a6.606 6.606 0 0 0-.531-4.044z" style="fill:#4f9a44"/><path d="M13.656 13.881A16.656 16.656 0 0 0 6 28l7-4s-1-5 0-6a6.8 6.8 0 0 1 .656-4.119z" style="fill:#6cab46"/><path d="M13.656 13.881A6.8 6.8 0 0 0 13 18l2 5 3-2v-5a10.108 10.108 0 0 1 .969-3.937 12.428 12.428 0 0 0-5.313 1.818z" style="fill:#4f9a44"/><path d="M26.168 13.281A15.068 15.068 0 0 0 20 12c-.345 0-.688.031-1.031.063A10.108 10.108 0 0 0 18 16l3 4 3-1 1-3s.073-1.973 1.168-2.719z" style="fill:#44853b"/><path d="M28.98 15.03a11.96 11.96 0 0 0-2.812-1.749C25.073 14.027 25 16 25 16l2 3 5 2a7.854 7.854 0 0 0-3.02-5.97z" style="fill:#406e31"/><path d="M24.09 26.01a24.187 24.187 0 0 0-2.474 6.06C23.99 32.3 24 33 24 33l2 5 3-3 1-1s-1.97-7.88-5.91-7.99z" style="fill:#4f9a44"/><path d="M21.616 32.07A51.43 51.43 0 0 0 20 44l5-4-1-7s-.01-.7-2.384-.93z" style="fill:#6cab46"/><path d="M42.384 32.07a24.187 24.187 0 0 0-2.474-6.06C35.97 26.12 34 34 34 34l1 1 3 3 2-5s.01-.7 2.384-.93z" style="fill:#4f9a44"/><path d="m40 33-1 7 5 4a51.43 51.43 0 0 0-1.616-11.93C40.01 32.3 40 33 40 33z" style="fill:#6cab46"/></g></svg>
