<svg xmlns="http://www.w3.org/2000/svg" viewBox="0 0 141 141"><path d="M21.333 320c0-128 85.334-298.667 298.667-298.667 106.693 0 153.735 72.764 168.653 110.078a28.732 28.732 0 0 1-14.096 36.247 29.167 29.167 0 0 1-33.43-5.525C428.614 150.017 400.091 128 362.666 128c-42.667 0-85.334 21.333-85.334 85.333s42.667 85.334 85.334 85.334c32.973 0 65.947-12.742 79.227-18.53a34.133 34.133 0 0 1 13.72-2.804 35.053 35.053 0 0 1 35.053 35.053V448A42.667 42.667 0 0 1 448 490.667H64A42.667 42.667 0 0 1 21.333 448z" style="fill:#602fff"/><path d="M85.333 448h405.334V314.537c0-19.2-14.527-36.495-33.715-37.18a34.367 34.367 0 0 0-15.057 2.778c-.215.094-.533.222-.758.318a252.11 252.11 0 0 1-6.758 2.776c-.852.337-1.79.69-2.707 1.042-2.39.914-5.043 1.868-7.837 2.834-2.61.903-5.353 1.787-8.26 2.68a234.143 234.143 0 0 1-12.791 3.52c-.909.224-1.776.467-2.7.682-5.066 1.173-10.374 2.157-15.783 2.95-3.078.448-6.166.894-9.307 1.171h-.013c-4.08.36-8.197.559-12.314.559-42.667 0-85.334-21.334-85.334-85.334S320 128 362.667 128h.388l.065.001h.164c.02.002.043.002.062.002h.226c.018 0 .036 0 .054.002h.059c.017 0 .036 0 .053.002H363.908c.02 0 .039 0 .057.002h.056l.057.001c.018 0 .04 0 .059.002h.052l.061.001.053.001c.023 0 .046 0 .07.002h.121l.092.004H364.694c.018.002.036.002.055.002l.057.001a.805.805 0 0 0 .056.002l.057.001a.732.732 0 0 0 .054.001c.02.002.039.002.058.002h.055l.057.004h.054c.02 0 .039 0 .057.002l.056.001.059.002a.645.645 0 0 0 .05.001l.061.003.051.001.061.001c.016.002.034.002.05.003l.061.001.052.001c.02.002.04.002.061.003l.046.001.065.003.046.001a1.125 1.125 0 0 1 .105.004l.28.01h.008l.078.003a.284.284 0 0 0 .034.002l.07.002.04.003.07.002.041.002.07.004h.04l.07.003.042.003a1.17 1.17 0 0 1 .11.005c.024 0 .046.002.07.003l.04.001.069.004.039.001.073.004a.342.342 0 0 0 .036.002l.073.003.036.003.075.004a.273.273 0 0 1 .032.001l.078.004.025.002c.205.01.406.022.61.033l.015.002c.029.001.059.002.089.005l.02.001.084.005a.175.175 0 0 1 .026.002c.027.001.054.002.083.005l.024.001.082.005.03.002.08.005.024.001.086.007a.126.126 0 0 1 .022.001l.087.005.018.002c.03.002.061.003.091.006l.015.001.095.007h.006q.53.037 1.056.08h.002l.101.007h.007l.101.01h.003l.103.007.004.001a99.828 99.828 0 0 1 19.26 3.563l.008.002.086.025.01.003.082.023.014.005.082.024.015.004.078.022.02.006.076.023.02.005.074.022a.159.159 0 0 0 .023.006l.056.017c.19.056.378.108.566.158.184.062.37.122.557.18q3.144.962 6.146 2.086l.005.002.354.133h.001c.088.032.176.066.263.099l.008.004.254.096.014.005.248.097a.065.065 0 0 1 .017.006l.08.03.01.004.147.057.03.012.071.028.03.011.14.055.018.006.071.03.034.012.227.09.034.013.069.027.02.008c.044.018.09.037.135.053a.305.305 0 0 0 .036.015l.065.027a.422.422 0 0 1 .043.017 2.266 2.266 0 0 1 .154.061.982.982 0 0 0 .056.022.959.959 0 0 0 .055.023l.079.032.069.027c.018.008.034.013.05.021l.062.025c.017.006.031.012.048.02l.095.037.05.021.06.025.05.02.097.04a1.55 1.55 0 0 0 .155.064l.09.037.036.015.085.035.043.018.078.031a.208.208 0 0 0 .03.013l.101.043c.013.005.028.01.04.017l.076.03c.013.007.024.01.037.016l.102.043a.265.265 0 0 0 .034.014l.078.034.036.014.105.045.025.01.087.038a.336.336 0 0 1 .033.013c.036.015.071.031.108.045l.007.004.105.044.026.012.097.042.016.006.11.047.027.012.09.039.023.01c.038.016.073.03.11.047l.02.008.096.042a.144.144 0 0 0 .021.009l.227.099.02.009.227.099.018.008.227.1.02.01.106.046.005.003.118.052.009.004.11.048.01.005.234.104.01.004c.077.035.155.07.233.107l.008.002.237.107.003.002a131.022 131.022 0 0 1 34.574 23.238l.115.107.002.004.17.157v.003l.057.052.001.001.055.052.001.001.11.106.003.001.051.048.007.006.05.05.007.006.05.046.002.003.052.05.01.007.042.042.01.01.102.097.008.006.046.045.013.011.04.04.014.014.098.092.01.01.046.045.003.002c.015.016.03.032.048.047l.014.013.038.038.008.008.05.047.007.008.042.039.011.011.047.046a29.843 29.843 0 0 0 20.718 8.534 28.34 28.34 0 0 0 12.713-3.01 28.997 28.997 0 0 0 16.11-25.84 28.044 28.044 0 0 0-2.013-10.407l-.028-.067-.006-.016-.024-.059-.005-.013a6.25 6.25 0 0 1-.056-.139l-.006-.014a178.847 178.847 0 0 0-22.46-39.577l-.003-.005-.144-.193-.007-.008-.063-.085-.01-.013-.139-.185-.014-.019-.065-.086-.003-.003c-.02-.03-.043-.058-.065-.087a1.72 1.72 0 0 1-.069-.092l-.023-.03a3.56 3.56 0 0 0-.064-.085l-.013-.018-.054-.07-.022-.029a2.615 2.615 0 0 1-.048-.063l-.022-.03-.063-.081-.022-.03a2.053 2.053 0 0 0-.043-.056l-.027-.037a1.686 1.686 0 0 1-.044-.057l-.04-.055-.042-.053-.034-.045a1.473 1.473 0 0 1-.037-.046l-.026-.036a2.62 2.62 0 0 1-.054-.071l-.036-.047a.76.76 0 0 1-.039-.05l-.03-.04-.037-.048-.03-.04-.059-.076-.031-.039-.038-.05-.03-.039a2.712 2.712 0 0 0-.08-.102l-.045-.06-.036-.047-.03-.04a3.643 3.643 0 0 0-.092-.121c-.015-.016-.025-.03-.04-.049a.305.305 0 0 1-.024-.032c-.015-.019-.03-.036-.042-.054l-.018-.023a26.967 26.967 0 0 1-.084-.107l-.018-.025-.043-.053-.02-.026-.045-.059-.005-.006-.103-.132-.005-.008-.054-.067-.005-.007-.155-.199-.017-.02q-1.459-1.864-3.001-3.729a21.334 21.334 0 0 0-37.745 14.227 153.603 153.603 0 0 0-18.61-7.065c-.264-.081-.525-.155-.788-.226-.26-.087-.522-.169-.788-.247a141.433 141.433 0 0 0-39.92-5.818c-50.177 0-88.568 21.124-109.53 56.979C235.818 171.935 205.996 192 171.682 192h-1.015c-65.153 0-84.058 52.17-93.144 77.24-.868 2.4-1.95 5.385-3.006 8.093H66.94a21.333 21.333 0 0 0 0 42.667z" style="fill:#3412d4"/><path d="M341.333 42.667A21.333 21.333 0 0 0 320 21.333h-.7c-.05 0-.1 0-.15.002H318.448l-.195.002h-.056c-.055 0-.103 0-.158.002h-.441l-.051.002-.197.001h-.02c-.058 0-.118 0-.178.002h-.058l-.155.001h-.043l-.192.001-.053.002-.146.001h-.062l-.19.001a.23.23 0 0 1-.03.002h-.224c-.06.002-.121.002-.181.003h-.015l-.196.003h-.052l-.162.001-.038.002-.197.002h-.037l-.168.002h-.045l-.196.003h-.025l-.174.003-.053.001-.16.002-.04.001c-.065 0-.13.001-.194.003h-.046l-.16.002-.045.002c-.064 0-.133 0-.197.002l-.03.001c-.055 0-.108.002-.162.003l-.063.001c-.06 0-.118.002-.178.003h-.013l-.189.004h-.065l-.152.004h-.04l-.195.004-.045.001c-.055 0-.102.001-.157.003h-.049l-.193.005h-.028l-.174.004-.048.001c-.06 0-.118.001-.177.003h-.02l-.199.005a.38.38 0 0 0-.039.001c-.054.001-.112.001-.165.003l-.044.001-.2.005h-.014l-.182.004-.043.001-.396.01h-.048l-.175.005-.02.001a10.19 10.19 0 0 0-.2.005c-.013 0-.026 0-.039.002l-.164.003c-.013 0-.032 0-.044.002a9.338 9.338 0 0 0-.194.005h-.027l-.171.005-.05.001a7.644 7.644 0 0 0-.174.006h-.023l-.198.005-.04.001-.16.005c-.013 0-.033 0-.046.002l-.194.005-.03.001-.164.005-.055.002-.193.005h-.001l-.188.006c-.026.002-.033.002-.058.002a6.374 6.374 0 0 1-.158.005l-.037.001-.187.007-.06.001-.135.005-.065.002c-.059.002-.12.003-.178.006l-.062.001-.13.006c-.026 0-.05 0-.074.002l-.146.005c-.013 0-.029 0-.042.002a8.473 8.473 0 0 0-.182.006l-.066.002a4.54 4.54 0 0 1-.13.005l-.067.002-.18.007-.052.001c-.044.003-.099.004-.143.005a.956.956 0 0 1-.06.003l-.187.006-.02.002-.174.006-.056.003-.157.005a.351.351 0 0 1-.036.001l-.188.008a.845.845 0 0 0-.056.003l-.144.005c-.013.001-.04.001-.053.003-.063.002-.123.005-.185.006-.013.001-.033.001-.046.003l-.15.006-.054.002-.173.007h-.023l-.185.008c-.024.001-.037.003-.062.003a4.817 4.817 0 0 1-.14.006l-.053.003-.185.008-.05.002-.145.006a.808.808 0 0 1-.057.002l-.188.01h-.024l-.16.007c-.025.001-.045.003-.07.003l-.147.007-.039.002c-.062.002-.125.005-.187.009l-.054.001-.144.008-.052.001a8.922 8.922 0 0 1-.187.01c-.011 0-.028 0-.041.002l-.155.007a.7.7 0 0 1-.05.002l-.18.01h-.018l-.182.008c-.013.002-.045.003-.057.004l-.149.007-.046.002-.187.01c-.011 0-.033 0-.047.002l-.15.008a9.224 9.224 0 0 0-.24.012h-.02a7.606 7.606 0 0 0-.172.01l-.052.003a7.06 7.06 0 0 0-.17.009h-.02a9.182 9.182 0 0 1-.242.013l-.15.008a.503.503 0 0 1-.045.002l-.184.01-.052.003-.14.008-.063.004-.161.008-.051.004-.157.007-.065.004-.136.008-.052.003-.181.01a.733.733 0 0 1-.054.003l-.143.009-.056.003a8.682 8.682 0 0 1-.184.01l-.035.003a5.522 5.522 0 0 0-.15.009l-.063.004a6.503 6.503 0 0 0-.16.009l-.03.001-.18.012-.061.002-.145.01c-.013 0-.031 0-.043.002l-.183.012-.056.002-.137.01a.903.903 0 0 0-.061.003l-.181.01-.028.002c-.052.004-.11.008-.162.01-.025.003-.032.003-.056.004l-.142.01c-.025 0-.03 0-.054.003l-.18.01-.052.005-.139.009a.95.95 0 0 0-.058.004l-.18.012a.506.506 0 0 0-.044.002l-.144.01-.066.003-.147.01c-.013.002-.03.002-.043.003l-.172.012-.067.004a4.207 4.207 0 0 1-.127.009l-.064.004-.168.012c-.025 0-.05.003-.075.005l-.118.008a1.142 1.142 0 0 0-.066.005l-.177.011a.506.506 0 0 1-.043.003l-.143.01a1.174 1.174 0 0 0-.068.006c-.044.002-.09.005-.133.009-.025.001-.03.001-.055.004l-.173.011-.07.006-.113.007c-.025.003-.054.004-.078.006-.058.005-.11.007-.167.013a1.315 1.315 0 0 0-.072.005l-.108.008-.084.005-.13.01-.075.006-.146.01c-.024.003-.05.004-.074.005l-.12.01-.065.004a7.425 7.425 0 0 0-.24.019c-.04.002-.081.005-.12.009-.014 0-.054.004-.067.005-.056.004-.12.01-.176.013l-.037.003-.153.011-.054.004-.144.012a.717.717 0 0 0-.05.004l-.172.013-.067.005a3.88 3.88 0 0 1-.189.014c-.057.006-.117.01-.173.015l-.054.004-.13.01a1.269 1.269 0 0 1-.071.005l-.148.013-.062.004-.143.012-.073.006-.12.01a1.18 1.18 0 0 1-.067.005l-.166.014c-.024.001-.05.004-.074.007-.039.002-.075.005-.114.009l-.068.005a8.398 8.398 0 0 1-.224.018l-.138.012-.061.005-.142.012c-.012.001-.033.004-.046.004l-.173.015-.064.005-.126.01c-.025.003-.04.005-.064.006l-.17.016a3.721 3.721 0 0 0-.184.016c-.025 0-.046.003-.07.005l-.144.013a1.688 1.688 0 0 1-.08.006l-.13.012-.07.006-.13.012-.052.004-.17.016c-.024.002-.05.003-.073.006a3.333 3.333 0 0 0-.185.017l-.168.014-.061.007a3.721 3.721 0 0 0-.197.017l-.112.01-.11.01-.123.012c-.025.002-.057.006-.08.007a2.872 2.872 0 0 1-.101.009l-.082.008-.16.015-.074.007-.111.01-.077.008c-.052.004-.096.01-.147.013l-.074.008-.123.012a1.361 1.361 0 0 0-.075.006l-.12.012a7.019 7.019 0 0 1-.3.029l-.12.011a.964.964 0 0 1-.06.006l-.17.017-.065.006-.118.012a1.36 1.36 0 0 1-.076.006c-.043.005-.084.01-.127.013l-.077.008c-.043.004-.095.01-.138.013-.025.003-.055.007-.078.008l-.11.012-.072.006-.163.017-.074.008a2.757 2.757 0 0 0-.103.01l-.084.008-.135.014c-.037.003-.05.006-.086.008-.04.004-.085.01-.124.013l-.069.007-.133.014-.046.005-.172.017-.06.007-.13.013-.059.006a7.703 7.703 0 0 0-.172.018l-.052.006-.128.013-.069.007c-.043.004-.082.01-.125.013l-.101.01c-.04.006-.08.01-.119.014l-.075.008c-.04.004-.077.007-.116.013l-.064.006-.164.017-.071.008-.112.013-.073.008c-.056.005-.111.011-.166.018l-.054.005c-.043.005-.081.01-.123.013l-.075.01c-.038.003-.08.007-.119.012l-.08.01-.143.015-.079.008-.103.012-.074.007a6.92 6.92 0 0 1-.161.019l-.072.007c-.038.006-.072.01-.11.013l-.076.008a3.64 3.64 0 0 1-.125.015l-.098.011c-.038.004-.078.01-.117.013l-.073.008c-.038.005-.077.01-.115.013-.024.004-.045.005-.069.008l-.161.02-.072.007-.105.012-.078.01c-.051.006-.098.01-.149.017l-.082.01-.107.011-.079.01-.12.014-.071.009c-.047.005-.098.01-.144.017l-.079.009-.108.013-.07.008-.162.02-.073.007-.103.013-.08.009-.114.014c-.036.004-.078.01-.113.013l-.11.013c-.023.004-.054.007-.079.01l-.101.012-.075.01-.158.02-.075.008-.102.013-.084.01-.153.019-.073.009-.105.013-.078.01c-.037.004-.08.01-.118.013l-.098.013c-.038.006-.08.01-.117.015l-.085.01c-.033.004-.066.01-.1.013l-.071.01c-.051.006-.109.012-.158.019a1.409 1.409 0 0 0-.078.01l-.103.013-.076.01-.155.019-.06.008-.123.015-.073.01-.11.014a1.876 1.876 0 0 1-.09.011l-.139.019-.074.009-.1.013a7.425 7.425 0 0 1-.237.031l-.064.008-.114.015a1.36 1.36 0 0 0-.077.01l-.11.015-.108.015c-.037.003-.075.009-.113.014l-.08.01-.104.015-.071.009-.156.02a1.658 1.658 0 0 1-.08.011c-.032.005-.064.01-.096.013l-.081.012-.12.015a3.22 3.22 0 0 1-.11.015l-.1.014-.08.01-.102.015a2.76 2.76 0 0 0-.11.014l-.118.017a1.66 1.66 0 0 0-.079.01c-.034.004-.065.01-.098.013l-.082.012-.152.02c-.023.004-.055.009-.078.011l-.094.013c-.023.004-.061.01-.086.012l-.097.014-.137.019c-.03.005-.057.007-.086.013-.024.002-.07.009-.093.013l-.086.011c-.023.003-.065.01-.088.012-.05.008-.095.013-.145.02l-.088.014c-.025.002-.06.008-.085.012l-.09.013-.101.014-.13.018-.089.013c-.023.003-.064.01-.087.012l-.094.013-.122.018-.107.016-.085.011c-.028.004-.06.01-.088.013-.035.006-.051.007-.086.012l-.15.022c-.035.006-.05.008-.085.012-.028.005-.054.01-.083.013l-.095.014-.075.01-.16.024-.077.012-.095.013-.079.012-.128.02a2.783 2.783 0 0 1-.11.015l-.088.013-.081.013-.094.013c-.02.004-.045.008-.065.01-.059.01-.117.017-.176.026l-.07.01a2.438 2.438 0 0 1-.096.015c-.025.004-.055.01-.08.012a5.74 5.74 0 0 1-.147.022l-.087.014-.09.013a1.813 1.813 0 0 0-.082.013l-.091.013-.142.022-.095.015c-.029.003-.048.007-.077.011l-.091.015-.091.014a5.457 5.457 0 0 0-.144.022l-.08.012-.09.014c-.03.004-.06.01-.089.013-.035.007-.076.012-.112.018a3.65 3.65 0 0 0-.117.019l-.088.013-.082.013-.089.014-.147.023a1.456 1.456 0 0 0-.08.012l-.093.014-.082.013a2.89 2.89 0 0 1-.104.017l-.107.017-.112.018-.082.013c-.029.004-.057.01-.087.013-.034.006-.051.01-.086.015l-.146.023-.085.013-.084.015c-.036.005-.056.007-.092.014a2.13 2.13 0 0 0-.09.014l-.135.022-.09.015-.082.013-.101.017-.095.015-.125.02-.084.014-.088.014-.08.013-.132.023-.105.016c-.028.004-.056.01-.084.013l-.084.015-.108.018a3.124 3.124 0 0 0-.108.018c-.032.005-.069.01-.101.017l-.086.014c-.029.004-.055.01-.084.013l-.132.023c-.029.005-.07.011-.098.017l-.095.015-.07.012a2.56 2.56 0 0 0-.097.017l-.067.01-.171.029-.066.012-.1.017-.071.011-.148.026-.088.015-.088.015-.084.015-.086.014a6.645 6.645 0 0 1-.227.039c-.029.005-.062.01-.09.016-.024.003-.056.009-.078.014l-.105.017-.127.022-.083.014-.093.017-.073.013c-.057.01-.103.017-.16.028-.023.003-.05.009-.073.013a2.12 2.12 0 0 0-.096.016l-.07.012a2.105 2.105 0 0 1-.097.017 2.957 2.957 0 0 1-.104.018l-.124.022-.078.015-.092.015c-.025.006-.051.01-.076.015l-.15.026-.083.014-.091.017a1.175 1.175 0 0 0-.072.013l-.326.059c-.03.005-.049.007-.077.013l-.09.016-.087.016a4.895 4.895 0 0 0-.223.04l-.085.016-.08.014c-.046.008-.11.02-.155.03l-.076.012-.091.017-.076.014-.088.016-.102.018c-.045.01-.092.017-.136.026l-.065.012-.1.018-.068.013a6.978 6.978 0 0 0-.232.043l-.094.017-.08.016-.084.015c-.048.01-.096.017-.145.026l-.084.017-.08.014-.09.017a1.59 1.59 0 0 1-.07.013l-.166.032-.067.013-.096.018-.06.012-.188.035a.697.697 0 0 0-.05.01c-.034.005-.062.01-.095.017l-.072.014-.098.019-.004.001c-.08.014-.15.029-.23.044l-.059.01-.101.02-.065.013c-.045.01-.118.022-.162.031l-.073.015c-.034.006-.058.01-.092.018l-.076.014-.133.026-.09.017-.1.02-.067.013-.095.018-.07.014c-.055.01-.107.021-.163.033l-.066.012c-.022.005-.072.014-.095.02l-.069.012-.162.033-.07.013-.096.02-.064.012-.099.02-.048.009a8.716 8.716 0 0 0-.18.036l-.068.013-.098.02-.056.012a8.833 8.833 0 0 0-.182.036l-.055.01-.096.02-.075.016-.153.03-.073.015-.094.018c-.023.006-.045.01-.07.015a2.957 2.957 0 0 1-.091.02l-.063.011-.176.036-.058.012-.1.021-.06.012-.17.035-.063.013-.097.02c-.02.003-.047.01-.066.014l-.13.026-.102.022c-.034.006-.061.012-.094.02l-.065.012-.096.02-.07.014-.153.033-.078.015c-.022.006-.068.015-.09.02l-.066.016c-.068.013-.125.026-.192.04l-.035.007-.102.02c-.023.006-.037.01-.062.014l-.1.022-.03.006-.197.042-.064.013-.095.02-.066.014-.176.038-.052.011a2.663 2.663 0 0 0-.099.021l-.064.013-.178.04a.67.67 0 0 0-.05.01l-.097.02-.063.014-.099.022-.067.014-.153.033-.073.015-.092.021-.073.016-.142.03a1.878 1.878 0 0 1-.082.018 2.083 2.083 0 0 1-.096.02c-.02.006-.04.01-.06.014l-.098.022-.08.017c-.057.013-.087.02-.141.03l-.077.018a2.257 2.257 0 0 1-.09.02l-.059.012a9.813 9.813 0 0 0-.191.043l-.038.008a2.899 2.899 0 0 1-.103.022l-.06.015-.183.04-.047.01-.098.023c-.02.003-.04.009-.06.013a2.55 2.55 0 0 1-.096.02l-.064.016-.164.036-.066.015a2.505 2.505 0 0 1-.095.02 10.595 10.595 0 0 1-.258.059l-.026.007c-.034.006-.076.017-.11.024a.67.67 0 0 0-.049.01c-.11.026-.223.052-.333.076a.887.887 0 0 1-.057.013l-.1.024a.778.778 0 0 0-.053.012l-.178.04a.887.887 0 0 1-.058.013l-.099.023-.052.012c-.078.018-.147.034-.224.05l-.007.003-.102.024-.056.013-.34.078-.042.01-.106.025a.637.637 0 0 0-.048.01l-.2.048-.034.007-.105.025-.052.012-.333.078-.051.013-.108.025-.017.004-.22.052-.038.009-.104.024c-.016.004-.037.01-.052.012l-.18.043a.814.814 0 0 1-.055.013l-.097.024-.052.013c-.11.026-.226.053-.334.08l-.053.012-.104.025-.037.009-.213.05-.025.007-.108.026-.048.012c-.11.026-.225.055-.335.08l-.05.014c-.033.007-.068.015-.1.024-.017.003-.033.008-.05.012l-.181.044c-.02.006-.036.008-.055.013l-.095.024-.064.015-.159.04-.064.015-.099.025-.05.012-.335.083-.047.012-.107.026-.039.01-.19.047-.048.012-.105.027-.042.01-.337.084-.05.013a3.216 3.216 0 0 0-.107.027l-.234.059-.038.009-.101.026-.055.014-.2.05-.024.006c-.032.01-.078.021-.11.029l-.037.009-.34.087-.045.012a3.21 3.21 0 0 0-.107.027l-.031.008-.21.053-.029.008-.11.029-.04.01-.225.058-.009.002-.101.026-.052.014a2.984 2.984 0 0 0-.102.026l-.02.006-.207.053a.711.711 0 0 1-.05.013c-.033.01-.07.018-.102.027l-.04.01-.214.057-.017.004a3.415 3.415 0 0 1-.15.039 32.999 32.999 0 0 1-.528.14l-.197.051a.237.237 0 0 1-.032.01l-.11.028-.035.01-.344.092-.037.01-.338.09-.043.012-.105.028-.035.01c-.064.016-.14.037-.205.055l-.03.008-.109.029-.035.01c-.107.029-.23.061-.336.091l-.048.013-.106.029-.009.003c-.075.02-.157.043-.232.062l-.022.007c-.043.011-.069.02-.112.03l-.035.01-.23.064h-.002l-.105.028-.048.013-.1.029-.016.004-.214.059-.043.011-.104.03a.326.326 0 0 0-.034.01c-.064.016-.14.038-.203.055a.304.304 0 0 1-.032.01l-.106.03-.038.01-.34.095-.035.009a34.5 34.5 0 0 1-.346.098.234.234 0 0 1-.029.007l-.113.033-.02.005-.349.1a.472.472 0 0 0-.04.01l-.341.097a.235.235 0 0 1-.029.008l-.11.033a.124.124 0 0 0-.024.006l-.207.059a4.463 4.463 0 0 1-.14.04l-.04.012-.331.095a.558.558 0 0 1-.045.013c-.031.009-.074.02-.105.03v.001c-.074.02-.162.046-.236.068l-.025.006-.11.033a.304.304 0 0 1-.033.009l-.2.059-.034.01-.102.03-.044.012-.33.096-.04.013c-.032.01-.074.02-.105.03l-.022.006-.217.064-.024.008-.107.031-.035.01-.339.101-.032.01-.343.1-.028.01-.109.032a.36.36 0 0 0-.035.01l-.195.06a.337.337 0 0 0-.034.01l-.104.03-.04.013c-.105.031-.228.067-.332.1a.276.276 0 0 0-.036.01l-.108.033-.014.004-.21.064-.04.011-.103.032a.36.36 0 0 1-.035.01l-.208.064-.021.006-.098.03-.05.015-.329.1a.315.315 0 0 1-.032.01l-.106.033c-.014.005-.022.006-.036.012l-.206.062-.02.007-.109.033-.03.01-.337.104-.035.01-.107.034-.012.003-.215.067-.033.01-.105.033a.315.315 0 0 0-.032.01l-.215.067-.014.005-.108.033-.03.01-.334.104-.036.012-.477.151-.02.007-.35.11-.018.006-.342.109-.031.01-.106.034-.027.008c-.072.023-.151.05-.223.072l-.006.002-.106.034c-.012.004-.026.01-.038.012l-.329.107-.034.01c-.04.013-.065.02-.107.035l-.022.007-.196.063-.042.015c-.04.013-.06.02-.102.032l-.033.012a31.48 31.48 0 0 0-.326.106l-.044.014-.33.108-.026.009c-.041.013-.067.02-.108.035l-.023.008-.227.074-.004.002-.109.036a.315.315 0 0 0-.033.01c-.101.034-.222.075-.325.108-.01.003-.029.01-.04.012l-.106.037-.003.001c-.082.026-.145.048-.227.075a.086.086 0 0 0-.02.007l-.107.035-.036.012c-.112.038-.215.071-.327.11a.315.315 0 0 1-.033.01l-.322.109-.043.014-.1.034-.028.01-.197.066-.034.011a7.34 7.34 0 0 0-.09.032 43.755 43.755 0 0 1-.372.125l-.032.011c-.042.013-.07.024-.11.037l-.228.078-.022.008-.108.036-.028.01-.331.114-.03.01-.33.114-.03.01a3.52 3.52 0 0 1-.108.037l-.014.005-.204.071-.037.012-.099.035-.035.012-.323.112-.036.013-.334.117-.02.007-.105.036-.032.012-.332.117-.021.007-.326.115-.043.015-.097.035-.033.012c-.06.02-.126.044-.187.066l-.035.012c-.03.011-.067.023-.097.035a30.972 30.972 0 0 0-.362.129l-.031.01-.316.113-.045.017-.097.036-.033.011-.323.116-.035.013-.323.116-.031.012-.102.036-.024.01-.201.072-.027.01-.103.038-.029.01-.217.079-.004.001-.1.037-.04.015-.308.114-.044.015c-.04.016-.058.021-.097.035l-.039.015-.18.066-.037.014c-.03.01-.065.025-.095.036l-.045.017-.298.109-.06.022-.087.033-.032.013-.187.069-.035.013-.094.035-.048.018-.195.073-.012.004-.101.038-.035.013-.318.12-.033.011c-.039.016-.066.025-.105.04l-.012.004-.21.08-.022.008-.103.039-.035.013-.316.12-.033.012-.103.04-.007.002c-.07.028-.137.052-.206.08l-.037.013-.097.037-.029.01-.316.122-.043.017-.31.118-.035.015-.1.037-.03.012-.196.076-.02.007a2.59 2.59 0 0 1-.105.04c-.01.005-.018.009-.03.012-.068.028-.142.055-.21.082l-.005.002-.095.038-.044.016-.096.038-.01.003-.196.077-.046.018a1.795 1.795 0 0 1-.088.034c-.017.008-.035.014-.052.02l-.153.06-.054.021a6.6 6.6 0 0 1-.091.037l-.04.014c-.097.04-.197.078-.295.117a.784.784 0 0 0-.059.024l-.087.034c-.013.005-.035.013-.048.02a7.766 7.766 0 0 0-.206.08l-.087.034a.96.96 0 0 1-.055.022l-.182.073-.018.006-.093.038-.045.017-.094.038-.013.005c-.068.027-.133.052-.2.08-.011.005-.024.008-.034.014l-.097.037-.039.016-.17.069-.04.016-.093.037-.042.016-.296.12-.054.022-.085.034-.053.02-.146.06a1.1 1.1 0 0 0-.059.024l-.087.035-.043.017c-.058.025-.12.048-.177.073l-.03.012-.088.035a.927.927 0 0 1-.054.022l-.087.035-.005.003-.205.083-.037.016-.094.037-.038.016-.189.077-.018.008c-.04.015-.068.027-.107.044l-.017.007-.323.132-.028.012-.102.042-.01.005-.194.08-.04.015a3.01 3.01 0 0 1-.096.04l-.032.013a8.632 8.632 0 0 1-.194.081l-.017.008-.1.04-.032.013a71.5 71.5 0 0 1-.303.127l-.044.02-.09.036-.04.016a9.55 9.55 0 0 0-.208.088c-.028.011-.06.026-.09.037l-.045.019-.172.073-.034.014-.082.034c-.02.009-.038.015-.057.025-.03.011-.052.022-.08.033l-.054.023-.159.067a.307.307 0 0 0-.036.016c-.04.015-.06.025-.098.04a.295.295 0 0 1-.03.013l-.177.076-.037.014-.086.038-.054.022-.29.124a.376.376 0 0 1-.041.017l-.092.04a.319.319 0 0 0-.032.013l-.178.075-.035.016a2.899 2.899 0 0 0-.094.04.353.353 0 0 0-.033.015l-.299.127-.047.021c-.096.04-.2.086-.295.128l-.038.015-.093.04a.354.354 0 0 0-.039.018l-.174.074-.03.014a2.896 2.896 0 0 0-.094.04l-.04.018-.3.13-.035.015a2.973 2.973 0 0 0-.095.042l-.022.01a7.725 7.725 0 0 0-.22.096l-.087.037-.051.022-.14.063-.062.026-.078.034c-.02.009-.035.017-.056.025l-.083.037-.04.017-.156.07-.052.021-.09.04a.352.352 0 0 0-.032.015l-.17.074-.04.018-.083.037-.057.026-.283.125-.044.02-.086.037-.045.021-.156.07-.047.02-.086.039a.688.688 0 0 0-.045.02l-.167.075-.032.014-.089.04c-.014.006-.03.012-.043.019l-.292.131a.515.515 0 0 0-.039.017l-.093.042c-.01.005-.024.01-.033.016-.057.024-.103.047-.16.071a1.781 1.781 0 0 0-.05.024c-.028.011-.058.026-.087.037l-.044.021-.284.13-.052.023-.08.036c-.018.008-.03.014-.048.02l-.152.071-.047.021-.082.038-.056.025-.144.066-.049.022-.084.04-.047.02-.29.133a.44.44 0 0 0-.034.017l-.097.043-.026.013-.164.075c-.017.007-.03.015-.047.021l-.087.04-.044.021-.172.08c-.01.004-.016.008-.026.011a5.42 5.42 0 0 0-.087.04l-.046.023a1.618 1.618 0 0 0-.083.038l-.059.027-.127.059-.067.03c-.018.01-.056.027-.075.036l-.051.024-.152.071-.042.02a4.614 4.614 0 0 0-.08.037l-.057.026c-.047.021-.101.047-.147.07l-.047.02-.077.037-.054.026-.08.036-.06.029-.131.061-.056.027-.083.038a9.951 9.951 0 0 1-.216.103l-.023.01c-.028.013-.057.028-.086.04l-.053.025-.078.038-.1.047-.086.042c-.02.009-.042.02-.063.028-.018.01-.055.026-.074.036-.022.011-.04.02-.064.03a3.637 3.637 0 0 1-.186.09l-.077.036-.057.026a1.324 1.324 0 0 1-.076.036l-.112.055-.078.036-.056.028-.083.039a.434.434 0 0 1-.035.017l-.154.074c-.017.008-.035.016-.05.025a2.213 2.213 0 0 0-.08.038l-.056.026-.145.07-.044.02-.083.041a1.682 1.682 0 0 0-.048.023c-.03.013-.053.025-.08.038l-.053.026-.149.072-.037.018c-.028.014-.066.031-.093.046l-.02.009-.187.09-.023.012c-.027.015-.064.032-.091.045l-.038.018-.183.09-.015.008-.09.043-.035.017-.095.046h-.001c-.065.033-.128.063-.192.094l-.04.02-.09.044-.027.014c-.056.026-.125.06-.18.088l-.023.011a1.679 1.679 0 0 0-.085.042l-.052.026c-.092.044-.187.091-.279.137l-.036.018-.086.042-.042.02-.157.079-.04.02a2.54 2.54 0 0 0-.085.042c-.013.005-.028.013-.04.02-.092.044-.196.096-.287.142l-.03.015c-.091.044-.203.1-.294.146a.313.313 0 0 1-.03.014l-.09.046-.038.018-.157.08c-.016.007-.025.011-.04.02l-.087.042a.392.392 0 0 1-.04.02l-.276.14-.047.022-.087.045-.017.009-.182.09-.03.016a2.478 2.478 0 0 0-.085.043l-.048.024c-.055.029-.115.059-.17.086l-.018.009-.088.046-.038.018-.088.045-.01.006-.183.092-.04.02c-.036.02-.051.027-.088.045l-.032.017-.177.09-.017.009-.094.047a61.06 61.06 0 0 1-.32.164l-.033.017a2.918 2.918 0 0 1-.09.045.228.228 0 0 1-.025.013c-.054.03-.114.059-.168.088l-.04.02c-.035.017-.05.025-.086.045l-.031.015a30.484 30.484 0 0 0-.32.166c-.09.045-.194.1-.286.147l-.036.02c-.027.012-.056.028-.082.041l-.05.027-.147.075-.037.02c-.028.015-.06.03-.086.045l-.042.022-.272.142-.046.023-.084.045-.019.009-.18.095-.027.013c-.036.02-.054.03-.09.048l-.03.015a6.76 6.76 0 0 1-.167.088l-.033.018-.086.044a.298.298 0 0 1-.035.019l-.267.141-.059.032c-.027.014-.048.024-.074.039a.654.654 0 0 0-.052.027l-.14.074-.04.021-.084.044-.046.025-.155.082-.031.017-.08.043-.049.025-.078.041-.035.019-.163.087-.031.017a5.45 5.45 0 0 0-.089.048l-.028.014-.18.097-.017.009-.089.048-.032.017a28.944 28.944 0 0 1-.405.217.225.225 0 0 1-.025.013l-.165.09-.037.02-.088.047-.028.015-.28.153-.04.02-.277.151-.033.017-.084.047-.04.022-.15.081a.61.61 0 0 1-.04.022l-.079.043a.965.965 0 0 1-.05.028l-.075.04-.11.06a1.944 1.944 0 0 1-.071.039l-.053.03a1.562 1.562 0 0 0-.08.044l-.032.017-.164.09-.026.016c-.036.018-.056.03-.092.049l-.03.016c-.052.03-.112.062-.164.09l-.03.018c-.026.014-.058.031-.084.047l-.035.018-.271.15-.044.024a2.46 2.46 0 0 1-.081.045l-.038.022-.154.084a.478.478 0 0 1-.035.02l-.08.044-.043.025-.274.152-.029.016-.092.052-.005.002-.192.107-.02.012-.093.052-.022.012c-.096.054-.193.11-.29.163l-.02.011-.295.167-.013.006c-.036.021-.064.037-.1.056l-.002.003-.185.104-.03.017-.086.048-.028.017-.282.16-.027.015-.292.166-.013.007-.095.055-.022.013c-.061.033-.125.07-.186.105l-.007.004-.092.053-.026.015c-.087.05-.194.11-.281.161l-.029.017-.087.05-.026.014-.167.098-.026.013-.088.052-.025.014-.285.164-.022.013-.278.161-.034.019c-.034.02-.053.03-.088.052a.083.083 0 0 1-.018.01l-.176.103-.021.012-.083.048-.04.023-.266.155-.04.024-.075.044a7.662 7.662 0 0 1-.186.108c-.014.01-.026.016-.042.025a2.385 2.385 0 0 1-.078.045l-.04.024-.266.157-.034.02-.281.165-.016.01-.097.058h-.002l-.188.112-.021.012-.087.052-.03.017-.269.16-.039.023-.083.05-.01.006-.18.107-.022.013-.088.052-.028.017-.173.104-.015.008-.083.05-.038.023-.27.163-.025.014-.092.055-.01.006-.182.11-.017.01-.09.055-.025.014-.28.17-.02.011-.28.17-.024.015-.09.055-.015.009a32.09 32.09 0 0 0-.28.17l-.032.02-.276.168-.018.012-.094.056-.007.005-.18.11-.02.013-.09.054a.277.277 0 0 1-.025.015c-.084.053-.19.116-.273.168a34.409 34.409 0 0 0-.315.194l-.004.003-.4.247-.007.006c-.102.062-.189.117-.29.18l-.014.008c-.101.063-.19.119-.293.181l-.006.004c-.034.023-.056.036-.089.056l-.03.02-.276.172-.013.008-.286.18-.013.007c-.134.085-.26.163-.392.248l-.012.006-.291.185-.004.003-.29.183-.012.008-.39.247-.014.01c-.333.212-.654.416-.986.63l-.006.005c-.332.212-.655.42-.984.635l-.01.007c-.132.084-.26.168-.392.254v.001q-.298.193-.592.387h-.001l-.393.259-.002.001-.976.645-.012.009q-5.334 3.545-10.417 7.293a21.333 21.333 0 0 0 25.32 34.34C206.68 79.666 258.92 64 320 64a21.334 21.334 0 0 0 21.333-21.333z" style="fill:#d1c2ff"/><path d="M21.333 352a32 32 0 0 1 32-32h32c42.667 0 21.334-85.333 85.334-85.333s42.666 128 106.666 128c106.667 0 64 64 128 64h53.334a32 32 0 0 1 32 32 32 32 0 0 1-32 32H53.333a32 32 0 0 1-32-32z" style="fill:#ac93ff"/><path d="M458.667 426.667H438.69q-.293 0-.586.007c-.195-.005-.39-.007-.587-.007h-32.437c-.024 0-.046 0-.07-.002H404.6l-.07-.002h-.095c-.024-.002-.042-.002-.065-.002h-.178c-.022-.002-.045-.002-.067-.002h-.016l-.058-.001h-.016c-.022 0-.043 0-.067-.002h-.013l-.069-.001h-.013l-.07-.001h-.01c-.024 0-.042 0-.064-.002h-.012l-.069-.001h-.011l-.067-.001h-.02l-.063-.002H403.414l-.015-.002-.066-.001h-.015l-.067-.002h-.015l-.068-.001-.008-.001c-.023 0-.043 0-.066-.002h-.01l-.067-.001-.016-.001c-.022 0-.04 0-.063-.002h-.019c-.02 0-.045 0-.063-.002h-.015l-.056-.001h-.015l-.064-.003h-.017l-.064-.003h-.017l-.066-.002h-.008l-.064-.002h-.012l-.069-.002-.01-.002h-.066l-.016-.002-.066-.001-.007-.002-.061-.001-.016-.001-.064-.002h-.015c-.022 0-.04-.002-.061-.004h-.023c-.018 0-.039 0-.057-.002h-.018l-.05-.003-.023-.001-.059-.001-.02-.002-.06-.002h-.019c-.022-.002-.036-.003-.058-.003l-.018-.001-.05-.003h-.022a.883.883 0 0 0-.059-.002l-.02-.002-.059-.002-.018-.002c-.022 0-.04 0-.06-.002h-.014l-.054-.003-.022-.001a.883.883 0 0 1-.059-.003l-.018-.001c-.022 0-.039-.001-.06-.003h-.018l-.064-.004H401a.846.846 0 0 0-.056-.002l-.022-.001a.845.845 0 0 0-.057-.003l-.02-.001a.924.924 0 0 0-.059-.003l-.02-.001-.054-.003-.018-.001c-.018-.001-.034-.003-.052-.003l-.022-.001-.056-.004a.126.126 0 0 1-.022-.001.807.807 0 0 1-.056-.003l-.024-.001-.044-.003-.03-.001-.042-.003-.026-.001-.052-.004a.21.21 0 0 1-.028-.001l-.051-.003a.175.175 0 0 0-.026-.001l-.042-.003-.032-.002-.04-.003-.028-.001-.055-.004-.02-.001-.055-.003-.024-.003c-.017 0-.035 0-.053-.002l-.007-.002c-.02 0-.037 0-.058-.002l-.022-.003-.056-.002-.019-.002c-.017 0-.041-.004-.06-.004h-.015l-.051-.005-.022-.001-.05-.004-.023-.001-.053-.004-.023-.001-.054-.004a.14.14 0 0 0-.024-.002l-.039-.004h-.032l-.04-.005-.03-.001-.047-.004-.028-.003-.048-.002-.025-.003-.047-.004-.02-.001-.05-.004-.025-.001-.052-.004-.023-.003-.052-.004a.142.142 0 0 0-.024 0l-.037-.005a.275.275 0 0 1-.033-.002l-.04-.003a.233.233 0 0 0-.029-.003l-.046-.004-.03-.002-.033-.003-.045-.004-.03-.002-.04-.004a.296.296 0 0 1-.034-.003l-.032-.002-.043-.004-.033-.003-.026-.003-.053-.003-.017-.003-.068-.005-.008-.002c-.039-.002-.077-.006-.116-.01l-.017-.001-.062-.005-.013-.002a1.193 1.193 0 0 0-.068-.006l-.009-.002a3.536 3.536 0 0 0-.117-.01l-.008-.001-.069-.007-.013-.001a1.322 1.322 0 0 0-.072-.007h-.002c-.04-.005-.077-.007-.116-.011l-.017-.003-.06-.005-.015-.003-.064-.006h-.012l-.113-.012-.016-.003c-.02 0-.039-.003-.06-.005l-.015-.002-.19-.02-.006-.001-.073-.008h-.006l-.193-.022h-.006c-.024-.004-.046-.005-.07-.01h-.009l-.19-.021-.009-.002-.07-.008h-.004l-.194-.024h-.001c-.091-.01-.181-.022-.271-.033l-.001-.001a1.489 1.489 0 0 1-.076-.01h-.003l-.188-.024-.008-.001c-.024-.003-.047-.005-.07-.01h-.004a8.555 8.555 0 0 1-.19-.025h-.002c-18.424-2.485-25.509-11.96-32.39-22.856l-.002-.001-.013-.02-.034-.054-.02-.033-.007-.012-.009-.013c-1.4-2.218-2.792-4.492-4.27-6.778l-.007-.01-.022-.032a.074.074 0 0 0-.01-.017c-.009-.012-.014-.022-.022-.034l-.009-.013-.023-.036-.005-.008-.028-.042-.002-.004a.768.768 0 0 1-.028-.043l-.002-.004-.029-.043-.004-.006a3.196 3.196 0 0 0-.056-.086l-.018-.029-.01-.014a.614.614 0 0 1-.024-.038l-.005-.007-.026-.04-.007-.01c-.008-.012-.015-.025-.023-.035l-.01-.014-.023-.037-.006-.01c-9.737-14.887-23.524-30.059-67.17-32.612q-.636-.037-1.265-.037a21.333 21.333 0 0 0-1.227 42.63c26.616 1.558 29.36 5.95 36.69 17.692 10.038 16.078 28.723 46.006 80.32 46.006h24.518a21.333 21.333 0 0 0 21.333 21.334h7.482a32 32 0 0 0 0-64zM53.333 490.667h295.473c-11.39-11.74-30.224-21.334-71.473-21.334-64 0-42.666-128-106.666-128S128 426.667 85.333 426.667h-32a32 32 0 0 0 0 64z" style="fill:#d1c2ff"/><path d="M170.667 320c-50.193 0-64.524 39.547-73.086 63.175-6.229 17.188-8.976 22.158-12.248 22.158h-32a53.401 53.401 0 0 0-25.965 6.741 10.667 10.667 0 1 0 10.395 18.63 31.83 31.83 0 0 1 3.61-1.727l.18-.072.002-.001.044-.018h.002l.176-.07.009-.003.04-.015.006-.002.127-.049.007-.003.04-.015.01-.004.125-.047.007-.002.036-.013.016-.006.035-.013.015-.006.114-.042.018-.006.032-.012.019-.007.032-.012.019-.006.059-.021.02-.008.03-.01.023-.008.03-.01.023-.01.029-.01.034-.011.039-.014.027-.01.027-.009.027-.009.026-.01.03-.01.026-.009.046-.015.024-.008.03-.01.025-.009.03-.01.023-.008.05-.017.013-.004.043-.015.018-.006.036-.012.02-.006.041-.013.013-.005.053-.017.018-.006.037-.012.02-.006.037-.012.018-.006.108-.035.017-.005.04-.013.016-.005.043-.013.013-.004.055-.017.01-.004.045-.014.016-.005.042-.012.014-.005.113-.034.01-.003.046-.014.013-.004.049-.014.007-.003.116-.034.009-.002.049-.015.01-.003.117-.033.057-.017.008-.002.052-.015.006-.002.118-.033.005-.001.054-.015.007-.002.177-.048.006-.002.055-.015.004-.001.18-.047.004-.002.181-.046.002-.001.06-.015.184-.046h.001c.061-.016.123-.03.184-.045h.002l.06-.015c.061-.014.123-.03.183-.043l.005-.001.245-.056.186-.041h.002c.08-.018.164-.036.245-.052l.006-.002.184-.038h.002l.06-.012h.002l.185-.037h.004l.06-.012.187-.036h.003l.187-.034h.002l.06-.011h.002l.126-.023.061-.01.003-.001.188-.032h.001l.25-.04h.006l.186-.03h.005l.057-.009h.005q.093-.015.187-.028h.005l.06-.009h.002l.126-.018h.001l.06-.008h.005l.188-.025h.005l.058-.008h.005l.126-.016h.002l.058-.008h.009l.058-.008h.002l.125-.014.008-.001.055-.006.008-.001.124-.014h.005l.056-.006.01-.002.055-.005H50l.123-.014h.01l.053-.006h.01l.058-.006h.003l.063-.006h.003l.057-.006.012-.001.052-.005h.01l.123-.012h.009l.052-.004.012-.002.057-.004h.003l.064-.006h.003l.057-.004.014-.001.047-.004.014-.001.122-.01h.01l.052-.003.013-.001.051-.004h.01l.123-.008.013-.001.049-.003h.014l.056-.005h.004l.062-.003h.011l.049-.004h.017l.047-.003.014-.001.06-.003h.003l.058-.003h.015l.046-.003h.017l.049-.003h.012l.06-.003h.011l.05-.003h.018l.042-.002.02-.001.057-.002h.002l.06-.002h.016l.046-.003h.017l.047-.001h.014l.06-.003h.01l.05-.001h.02l.042-.002h.019l.05-.002h.01l.06-.001h.018l.042-.001h.02l.046-.001h.015l.06-.002h.12l.023-.001h.059l.06-.001h32.281l.04-.001h.145l.034-.001H85.69l.025-.001H85.773l.04-.001h.02l.06-.002.057-.001h.02l.04-.001h.021l.037-.001.024-.001.036-.001h.022l.036-.002h.023l.036-.001.023-.001.035-.001h.024l.039-.002h.019l.058-.003h.012l.045-.002h.025l.033-.002.026-.001.032-.001.025-.001.034-.002.024-.001.033-.001.026-.002.031-.001.027-.001.034-.002.022-.001.043-.003h.015l.057-.003h.008l.049-.003.02-.001.038-.003h.02l.036-.003.024-.002.034-.002.024-.001.032-.002.025-.002.034-.002.023-.002.035-.002.021-.001.042-.003.015-.001.057-.004.009-.001.047-.004.02-.001.036-.003.024-.002.033-.002.023-.002.034-.003.023-.002.033-.002.023-.002.035-.003.021-.002.04-.004.015-.001.048-.004.009-.001.057-.005h.01l.045-.005.02-.002.036-.004.022-.002.033-.003.024-.002.032-.003.023-.003.034-.003.021-.003.038-.003.017-.002.041-.005h.015l.055-.007.057-.006h.004l.051-.006.015-.002.04-.005.019-.002.036-.004.019-.002.037-.005.02-.002.034-.004.021-.003.034-.004.022-.003.035-.004.019-.002.043-.006.011-.002.054-.006.017-.003.037-.005.022-.003.033-.004.022-.003.032-.004.023-.004.032-.004.022-.003.033-.005.02-.002.035-.005.02-.003.038-.006.015-.002.109-.016.012-.002.042-.007.017-.002.036-.006.02-.003.034-.005.02-.003.034-.006.02-.003.035-.005.017-.003.039-.006.015-.003.043-.007.01-.002.108-.018.012-.002.04-.007.018-.003.037-.007.017-.003.035-.006.02-.003.034-.007.018-.003.036-.006.016-.003.04-.008.013-.002.044-.008.009-.002.107-.02.008-.002.044-.008.015-.003.036-.007.02-.004.033-.007.019-.003.034-.007.018-.004.036-.007.016-.003.038-.008.014-.003.047-.01h.004l.107-.023.007-.002.044-.009.014-.003.039-.009.013-.002.038-.009.016-.003.036-.009.016-.003.036-.008.016-.003.038-.01.013-.002.047-.01.004-.002.105-.024.005-.001.046-.011.012-.003.039-.01.014-.003.037-.008.015-.004.037-.01.015-.003.038-.01.012-.002.044-.01.006-.003.157-.04h.001l.049-.012.01-.003.04-.01.012-.003.038-.01.014-.004.038-.01.013-.003.04-.011.01-.003.044-.012h.006l.154-.042.002-.001.048-.013.008-.003.041-.011.012-.004.04-.01.01-.004.04-.011.01-.003.042-.013.007-.002.047-.013.004-.001.152-.046h.002l.046-.014.01-.003.04-.013.01-.002.04-.013.01-.003.04-.013.01-.002.042-.014.007-.002.047-.015h.002l.15-.049h.002l.047-.015.008-.003.041-.013.008-.003.042-.014.007-.002.042-.015.008-.002.044-.015.004-.001.247-.085.003-.001.046-.016.004-.002.044-.015.006-.002.045-.017h.003l.341-.126.004-.001.046-.018h.002l.047-.018q.415-.159.818-.332c15.964-6.838 19.647-30.666 28.874-51.113l.002-.002.029-.065v-.002l.027-.058.006-.013.027-.06.001-.003.152-.332.002-.005.027-.059.006-.014.02-.045.014-.028.017-.038.01-.022.02-.044.01-.022.021-.045.009-.018.021-.046.01-.02c.038-.085.078-.17.118-.256l.008-.018.024-.05.004-.01.025-.054.008-.015.023-.05.007-.016.024-.05.006-.013.027-.059.003-.004.028-.06.003-.006.028-.06.003-.006.061-.13.005-.01.025-.054.009-.018.021-.046.01-.017.021-.047.01-.02.02-.044.01-.02.021-.045.01-.02.022-.047.008-.015.023-.049.008-.017.094-.194v-.001l.028-.059.012-.024.02-.04.011-.025.018-.037.012-.025.02-.04.012-.025.016-.033.016-.032.017-.035.012-.026.022-.044.009-.018.025-.053.006-.011.03-.063.01-.017.022-.047.009-.018.022-.044.012-.025.019-.038.012-.024.018-.038.014-.028.02-.04.009-.018.022-.046.01-.02.021-.042.011-.021.019-.038.013-.027.025-.05.006-.011.03-.062.015-.03.017-.032.015-.03.016-.032.014-.03.019-.036.012-.024.018-.037.014-.027.018-.035.015-.03.015-.03.016-.032.017-.032.015-.031.016-.031.015-.03.025-.049.006-.013.032-.062.01-.02.022-.042.012-.024.02-.038.013-.027.018-.035.014-.027.018-.035.016-.03.016-.032.015-.029.016-.031.017-.034.014-.026.017-.034.014-.026.061-.119.02-.038.013-.025.02-.039.014-.025.017-.033.016-.032.017-.032.015-.028.018-.035.013-.025.021-.04.012-.023.018-.034.016-.03.018-.033.014-.028.02-.038.012-.022.065-.122.016-.031.017-.031.014-.027.019-.035.016-.03.016-.03.017-.032.015-.029.019-.034.014-.027.017-.032.017-.031.016-.03.017-.032.016-.029.017-.033.016-.029.065-.12.015-.027.018-.033.019-.035.013-.025.02-.034.014-.028.018-.033.015-.026.018-.034.015-.028.019-.033.014-.026.019-.035.015-.028.018-.032.013-.025.02-.036.008-.013.082-.147.009-.017.02-.037.013-.024.02-.035.015-.026.017-.031.017-.03.018-.034.015-.025.018-.033.016-.029.019-.032.014-.026.02-.034.012-.023c.025-.044.05-.087.074-.132l.013-.022.017-.03.019-.033.016-.028.016-.029.02-.036.014-.024.022-.037.01-.02.023-.039.013-.021.022-.04.009-.015.025-.044.008-.013.026-.046.006-.01.027-.047.013-.023.045-.077.01-.016.021-.038.013-.022.02-.034.015-.026.02-.035.014-.023.021-.037.013-.02.023-.04.011-.02.022-.037.014-.025.021-.035.012-.02.023-.04.007-.012.088-.148.007-.012.023-.04.012-.02.023-.038.012-.02.02-.034.017-.029.017-.028.019-.03.017-.03.018-.03.018-.03.016-.027.02-.033.014-.023.022-.036.007-.013.083-.136.014-.023.02-.034.016-.026.019-.03.017-.03.019-.029.018-.03.017-.029.018-.028.02-.032.016-.027.02-.031.014-.025.022-.036.012-.019.023-.037.013-.02.084-.136.01-.015.02-.035.017-.025.021-.035.014-.021.022-.035.016-.026.02-.031.015-.026.02-.032.017-.027.021-.033.013-.02.024-.038.01-.017.027-.041.007-.011.043-.068.02-.033.021-.032.016-.025.02-.031.018-.028.017-.026.02-.033.019-.029.017-.027.02-.032.016-.023.023-.037.013-.02.023-.035.016-.024.022-.034.012-.02.025-.037.008-.014.052-.08.012-.018.024-.036.013-.02.023-.036.015-.022.022-.035.014-.021.023-.035.016-.024.02-.03.019-.029.019-.028.02-.03.017-.027.021-.032.017-.025.025-.038.013-.02.027-.04.022-.034.027-.039.019-.029.018-.027.02-.03.019-.028.019-.028.019-.029.02-.029.019-.028.018-.027.021-.031.018-.026.02-.031.018-.026.02-.03.02-.028.022-.033.015-.022.03-.042.019-.03.029-.042.012-.018.026-.038.015-.022.026-.037.014-.02.023-.034.018-.026.022-.031.017-.026.021-.03.018-.026.022-.031.019-.026.017-.026.023-.032.015-.022.023-.033.038-.055.007-.008.032-.047.02-.027.02-.028.02-.03.019-.026.02-.027.02-.03.02-.028.02-.027.02-.028.018-.027.022-.03.02-.03.017-.023.027-.037.014-.02.029-.04.01-.015.034-.046.02-.029.027-.037.016-.022.023-.032.02-.027.02-.029.02-.027.02-.027.02-.028.022-.03.019-.025.021-.029.02-.026.021-.03.019-.026.023-.031.017-.023.032-.044.008-.01.041-.056.008-.01.034-.046.01-.015.03-.04.015-.02.027-.036.015-.02.025-.034.018-.023.023-.032.018-.023.024-.032.018-.024.023-.03.018-.024.023-.03.019-.026.026-.035.014-.018.028-.036.034-.045.02-.027.019-.024.023-.031.018-.023.025-.032.017-.023.023-.03.02-.026.023-.03.019-.024.023-.03.018-.023.026-.033.017-.023.022-.029.02-.025.024-.031.018-.023.041-.053.012-.015.03-.038.018-.023.024-.031.02-.024.023-.03.017-.022.026-.033.018-.023.024-.03.02-.024.021-.028.022-.027.023-.029.018-.022.027-.035.016-.02.035-.043.007-.01.043-.053.01-.011.035-.044.01-.012.032-.04.015-.019.028-.035.017-.02.025-.032.019-.023.026-.032.017-.02.026-.033.017-.02.028-.035.016-.019.03-.036.013-.017.04-.048.004-.005.044-.053.012-.014.032-.038.016-.02.027-.032.019-.023.025-.031.017-.02.028-.033.017-.02.028-.034.015-.018.029-.034.017-.02.028-.034.016-.018.03-.035.015-.018.087-.103.019-.022.026-.031.017-.02.028-.032.017-.02.028-.033.017-.02.027-.031.019-.022.027-.031.018-.02.028-.034.016-.018.032-.037.013-.015.033-.038.013-.014.137-.157.009-.01.036-.042.012-.013.034-.039.012-.014.034-.037.014-.016.032-.036.014-.016.031-.035.016-.017.035-.04.01-.01.14-.156.004-.004.043-.049.007-.007.038-.042.014-.015.033-.036.014-.016.032-.035.015-.016.034-.037.012-.014.035-.038.012-.012.038-.042.009-.01c.048-.05.095-.102.143-.154l.004-.004.044-.046.008-.01.038-.04.014-.015.033-.035.014-.015.034-.036.014-.015.035-.037.012-.012.037-.04.01-.01.045-.048.002-.002.147-.153.006-.006.043-.045.008-.008.04-.041.01-.012.038-.04.011-.01.037-.038.013-.013.037-.038.01-.011.042-.042.007-.007.045-.046.004-.004.15-.152.002-.002.045-.046.011-.01.038-.038.013-.014.037-.037.011-.01.039-.04.012-.011.037-.038.012-.012.036-.035.015-.015.04-.04.008-.007.15-.147.008-.008.042-.042.01-.01.04-.037.013-.013.037-.036.014-.014.035-.033.015-.015.038-.036.011-.01.041-.04.01-.01.047-.045.002-.002.155-.147.004-.004.045-.043.012-.01.039-.037.014-.014.037-.033.014-.013.037-.036.014-.013.038-.035.012-.011.041-.039.01-.009.05-.046.157-.144.008-.007.045-.04.008-.008.043-.04.01-.009.043-.039.01-.008.04-.038.013-.01.042-.039.009-.008.047-.042.005-.004.214-.19.052-.047.004-.003.047-.042.01-.009.044-.038.009-.007.045-.04.008-.007.048-.042.004-.003.05-.044.004-.003.217-.187.004-.003.05-.043.005-.004.048-.041.009-.007.045-.038.01-.01.043-.035.012-.01.044-.037.009-.008.047-.04.007-.005.22-.182.004-.004.05-.041.007-.006.047-.038.011-.01.043-.035.012-.009.043-.035.012-.01.046-.037.008-.007.048-.039.007-.006.221-.177.012-.01.045-.035.01-.008.044-.035.013-.01.044-.034.012-.01.043-.034.012-.01.048-.037.007-.005c.095-.075.188-.147.284-.22l.003-.003.053-.04.007-.006.048-.036.012-.01.046-.034.009-.007.048-.037.01-.007.048-.037.008-.006.05-.037.008-.006.23-.171.006-.004.053-.04.004-.003.052-.038.009-.007.05-.036.008-.006.048-.035.01-.008.052-.037.005-.004.294-.211.005-.004.053-.037.008-.007.05-.034.011-.009.048-.033.01-.007.051-.036.007-.005.357-.248.006-.003.054-.037.006-.005.053-.036.009-.006.052-.035.007-.005.052-.035.009-.006.055-.037.004-.003.305-.203h.002l.058-.039.006-.004.053-.035.01-.006.052-.034.008-.005.053-.035.008-.005.056-.036.005-.003c.103-.067.204-.132.308-.197l.007-.005.055-.034.008-.005.052-.033.011-.007.05-.032.012-.007.05-.032.012-.007.055-.034.006-.003.25-.155.005-.002.058-.035.008-.005.053-.032.012-.008.05-.03.014-.008.049-.03.013-.007.052-.031.01-.007.058-.034.003-.002.318-.187.012-.007.052-.03.01-.006.053-.03.012-.008.053-.03.01-.006.054-.03.01-.007.061-.034.001-.001.325-.183.007-.004.058-.032.008-.005.055-.03.012-.007.056-.03.007-.004.06-.033.005-.003.063-.035h.002l.265-.144.002-.001.062-.033.01-.005.056-.03.01-.005.055-.03.012-.006.053-.028.013-.007.054-.028.012-.006.063-.033.27-.14.004-.002.061-.03.01-.006.055-.028.015-.007.051-.026.016-.008.053-.027.012-.006.058-.029.009-.004c.113-.057.225-.112.34-.168l.003-.002.061-.03.013-.006.056-.027.012-.006.056-.027.012-.005.057-.028.01-.005.058-.027.012-.006.064-.03.002-.002.208-.097.006-.003.062-.029.01-.005.058-.027.014-.006.054-.025.016-.008.052-.023.017-.008.054-.025.013-.006.059-.027.01-.004.067-.03.282-.127.009-.004.06-.026.014-.006.056-.025.013-.006.056-.024.015-.007.056-.024.014-.006.06-.026.009-.004.356-.151.005-.003.065-.027.011-.004.06-.026.01-.004.06-.025.015-.005.06-.025.01-.004.065-.027.005-.002.29-.118h.002l.07-.028.009-.004.06-.024.018-.007.054-.022.017-.006.056-.022.016-.006.058-.023.014-.005.06-.024.012-.004.293-.112.007-.003.065-.025.012-.004.06-.023.015-.006.058-.021.017-.007.056-.02.018-.007.058-.022.013-.005.064-.023.01-.003.072-.027.225-.081.009-.003.064-.023.015-.006.058-.02.018-.006.058-.02.016-.007.056-.02.02-.006.056-.02.018-.006.06-.02.014-.006.07-.024.003-.001.227-.077.013-.004.062-.022.016-.005.058-.02.02-.006.055-.018.02-.007.055-.018.022-.007.056-.018.017-.006.063-.02.012-.005.23-.074h.004l.072-.024.013-.004.063-.02.017-.005.057-.018.023-.007.054-.017.021-.007.056-.017.02-.006.06-.019.016-.005.063-.019.014-.004c.078-.024.156-.048.233-.07l.005-.002.071-.022.015-.004.063-.019.016-.004.062-.018.017-.005.06-.018.018-.005.06-.018.02-.005.061-.018.015-.004.068-.02.01-.003.238-.067h.001l.076-.021.016-.005.062-.017.02-.005.057-.016.023-.006.057-.016.022-.006.057-.015.021-.006.06-.016.018-.005.065-.017.015-.004.077-.021h.001l.16-.042.013-.004.066-.017.022-.005.057-.015.025-.006.055-.014.025-.007.055-.014.024-.006.056-.014.025-.006.057-.014.022-.006.065-.016.014-.003.244-.06.009-.002.07-.017.018-.005.063-.015.022-.005.057-.013.026-.006.056-.014.024-.005.057-.013.025-.006.061-.014.019-.005.068-.015.013-.003.247-.056.014-.003.066-.015.024-.005.058-.013.025-.005.057-.013.026-.005.056-.012.026-.006.058-.012.024-.006.062-.013.02-.004.068-.014.014-.003.166-.035.014-.003.07-.014.02-.005.061-.012.027-.005.056-.012.028-.005.055-.011.029-.006.055-.01.028-.006.056-.011.027-.006.059-.01.025-.006.064-.012.019-.004.17-.032.005-.001.078-.015.018-.003.066-.013.023-.004.06-.01.027-.006.057-.01.028-.005.058-.01.026-.005.058-.01.029-.006.058-.01.025-.005.069-.012.015-.002.172-.03.013-.002.072-.013.022-.003.063-.01.026-.005.06-.01.027-.005.057-.01.03-.004.057-.01.029-.004.059-.01.026-.004.063-.01.023-.003.068-.011.018-.003.174-.027.016-.002.07-.011.026-.004.059-.009.032-.005.054-.008.033-.005.055-.008.032-.005.054-.008.033-.004.054-.008.034-.005.056-.008.029-.004.067-.01.02-.003.176-.024.018-.002.07-.01.024-.003.062-.008.03-.004.06-.008.03-.004.056-.008.032-.004.057-.007.032-.004.056-.007.032-.004.057-.007.032-.005.062-.007.026-.003.088-.011.006-.001.083-.01.025-.003.063-.008.031-.003.057-.007.035-.004.055-.006.033-.004.056-.007.035-.003.056-.007.032-.004.058-.006.033-.004.06-.006.029-.003.068-.008.022-.002.09-.01h.008l.08-.009.033-.003.057-.006.035-.003.055-.006.037-.004.054-.005.037-.004.051-.005.04-.004.053-.005.036-.003.056-.005.035-.004.06-.006.03-.002.076-.007.015-.002.184-.016.02-.002.07-.006.031-.003.06-.005.035-.002.057-.005.035-.003.057-.005.036-.003.055-.004.037-.003.057-.005.035-.002.061-.005.03-.003.072-.005.021-.001.092-.007.025-.002.066-.005.036-.003.058-.004.035-.002.057-.004.038-.003.057-.004.035-.002.057-.004.037-.002.06-.004.033-.002.06-.004.034-.002.064-.004.029-.002.077-.005h.017l.093-.006.023-.001.071-.004.032-.002.062-.004.034-.002.06-.003.037-.002.058-.003.036-.002.059-.003.036-.002.058-.003.038-.001.056-.003.04-.002.058-.003.035-.001.08-.004h.014l.097-.005h.009l.085-.004.031-.001.064-.003.036-.001.06-.002.037-.002.058-.002.038-.001.057-.002.04-.002.058-.002.037-.001.062-.002.034-.001.067-.002.03-.001.082-.003h.014l.097-.003h.024l.072-.002.035-.001.061-.002.04-.001.055-.001.045-.001.053-.002h.04l.059-.002h.04l.058-.002h.038l.06-.002h.039l.067-.001h.028l.089-.002h.01l.098-.001.03-.001h.066l.04-.001h.06l.038-.001h.058l.042-.001h.057l.042-.001h.098l.06-.001h.335a10.667 10.667 0 0 0 0-21.334z" style="fill:#9a7bff"/><path d="M247.262 455.401a46.603 46.603 0 0 1-.561-.659h-.002l-.306-.368-.364-.447-.003-.003c-.1-.125-.2-.248-.298-.373l-.004-.005-.056-.07-.004-.006-.237-.3-.003-.005c-.016-.02-.037-.05-.054-.07l-.005-.008-.055-.069-.004-.005-.176-.23-.057-.073-.007-.01c-.017-.02-.033-.044-.05-.066l-.008-.01a2.494 2.494 0 0 0-.054-.07l-.002-.005c-.059-.075-.116-.152-.175-.23l-.004-.005a2.319 2.319 0 0 1-.05-.07l-.01-.01a2.129 2.129 0 0 1-.048-.066l-.009-.01-.053-.072-.003-.004-.114-.155-.003-.004a1.44 1.44 0 0 1-.052-.071l-.01-.013-.046-.063-.012-.016a1.825 1.825 0 0 1-.045-.062l-.01-.013c-.058-.078-.11-.151-.167-.23l-.01-.014-.045-.06-.014-.02c-.015-.021-.028-.038-.04-.058l-.015-.02-.044-.062-.01-.013-.111-.155-.007-.009-.047-.066c-.004-.007-.009-.012-.013-.02l-.04-.056a.23.23 0 0 1-.016-.022l-.039-.056-.016-.02-.041-.06-.012-.017-.055-.077-.004-.007a2.227 2.227 0 0 1-.048-.069.165.165 0 0 1-.017-.024l-.036-.051a.338.338 0 0 1-.018-.028l-.035-.05a.186.186 0 0 1-.019-.026l-.037-.054-.016-.023-.047-.067-.006-.009a2.74 2.74 0 0 0-.053-.077l-.015-.023-.037-.052-.02-.03-.032-.047a1.009 1.009 0 0 1-.053-.078l-.021-.03a1.06 1.06 0 0 1-.033-.048l-.019-.029-.047-.069-.02-.029-.035-.053a.75.75 0 0 1-.023-.034l-.029-.041-.024-.037-.028-.042-.023-.035a1.166 1.166 0 0 0-.029-.041l-.023-.037-.03-.044c-.008-.01-.015-.02-.022-.033l-.049-.071a.52.52 0 0 0-.022-.035.806.806 0 0 1-.028-.043l-.025-.038-.026-.038-.026-.04-.025-.037-.026-.041-.025-.036-.027-.041c-.006-.012-.014-.022-.022-.034l-.052-.08a.501.501 0 0 1-.022-.035l-.028-.041-.023-.037-.027-.041-.023-.034-.028-.045a.455.455 0 0 1-.021-.032l-.03-.046a.333.333 0 0 0-.018-.027l-.114-.176-.011-.02-.034-.053-.016-.025-.032-.05-.017-.025c-.01-.018-.022-.035-.033-.053l-.014-.023-.035-.054-.008-.012-.12-.19-.013-.02-.035-.056-.013-.022-.035-.054-.012-.02a1.46 1.46 0 0 1-.036-.059l-.008-.011-.17-.274-.007-.011c-.013-.021-.026-.043-.04-.063l-.007-.013a1.728 1.728 0 0 1-.04-.064l-.006-.009-.174-.285-.001-.001-.042-.068-.005-.01-.04-.066-.007-.01-.262-.435-.001-.002c-6.935-11.582-11.82-26.239-16.706-40.894a12.968 12.968 0 0 0-.069-.207l-.018-.057c-.018-.05-.035-.104-.052-.155l-.037-.11a1.713 1.713 0 0 1-.028-.087l-.028-.079-.054-.165-.019-.054-.143-.428-.006-.02-.108-.325-.05-.149-.061-.182-.005-.015q-.26-.784-.522-1.564l-.006-.016c-2.233-6.672-4.502-13.292-7-19.568l-.004-.01a1.963 1.963 0 0 1-.036-.092l-.005-.012-.038-.093-.004-.011-.08-.202-.01-.022-.031-.077-.012-.033-.024-.06a.398.398 0 0 0-.017-.041 1.339 1.339 0 0 0-.026-.064l-.013-.034-.029-.07-.029-.07-.018-.049a.829.829 0 0 1-.02-.05l-.019-.044a.896.896 0 0 0-.025-.062l-.01-.025c-.01-.022-.02-.047-.027-.069l-.008-.018-.137-.336v-.001c-.013-.029-.023-.058-.035-.086l-.001-.001c-.442-1.082-.89-2.149-1.348-3.207-.073-.166-.147-.331-.223-.494-.067-.165-.136-.33-.21-.493a121.153 121.153 0 0 0-3.618-7.532l-.001-.002c-.029-.054-.054-.1-.08-.153l-.006-.009a1.9 1.9 0 0 0-.038-.071l-.001-.003a3.997 3.997 0 0 1-.038-.073l-.008-.013-.032-.061-.007-.013-.039-.073-.002-.005-.036-.067-.007-.013-.034-.063-.006-.01-.036-.069-.012-.02-.03-.058-.006-.01a1.902 1.902 0 0 0-.038-.072l-.008-.015-.028-.051-.013-.026c-.025-.044-.049-.086-.072-.132l-.014-.026-.028-.05-.01-.019-.035-.065a.149.149 0 0 1-.013-.024l-.025-.043a.166.166 0 0 0-.014-.026l-.032-.06-.015-.028-.025-.044-.016-.03-.018-.032-.032-.06c-.008-.013-.01-.02-.019-.032l-.017-.032a.538.538 0 0 1-.02-.038l-.019-.032-.028-.051-.024-.045a.228.228 0 0 0-.014-.023l-.022-.042-.013-.022a1.932 1.932 0 0 0-.04-.073l-.012-.022-.024-.042-.013-.022a4.642 4.642 0 0 0-.076-.138l-.01-.02-.026-.042-.005-.01c-.017-.03-.032-.06-.05-.088l-.008-.015-.025-.046-.01-.014a2.943 2.943 0 0 0-.049-.088l-.006-.011-.025-.046-.008-.014-.087-.153h-.001l-.12-.21-.005-.01-.089-.155-.091-.157-.003-.004-.028-.05-.003-.005-.088-.152-.006-.008q-.152-.264-.307-.525l-.125-.208-.001-.004c-.403-.676-.88-1.24-1.296-1.893l-.012-.017a56.222 56.222 0 0 0-8.812-10.88c-.096-.091-.18-.205-.277-.296-.211-.194-.383-.445-.597-.634-.332-.294-.776-.422-1.116-.704a37.127 37.127 0 0 0-8.707-5.499c-.248-.11-.428-.326-.68-.43l-.006-.002-.08-.033-.003-.002-.125-.051-.007-.003-.075-.03-.01-.005-.081-.031-.002-.002c-.013-.005-.027-.01-.041-.017l-.007-.002-.075-.03-.013-.005-.064-.025-.021-.008-.118-.047-.02-.008a3.056 3.056 0 0 0-.061-.023l-.02-.008c-.02-.006-.037-.014-.057-.022l-.026-.009-.034-.013a.359.359 0 0 0-.034-.013l-.047-.018-.026-.01a.908.908 0 0 0-.053-.02.234.234 0 0 1-.027-.01.261.261 0 0 1-.034-.014l-.048-.017-.032-.011-.039-.015-.04-.015-.033-.012-.041-.016c-.013-.003-.026-.009-.038-.013l-.031-.011-.05-.019-.03-.01-.037-.014-.04-.013-.039-.015a.236.236 0 0 1-.027-.01l-.052-.018a.186.186 0 0 1-.029-.01l-.053-.019-.025-.009a.603.603 0 0 1-.044-.016l-.022-.007-.055-.019a.173.173 0 0 1-.023-.009l-.058-.02-.022-.006-.056-.02-.02-.006-.051-.018-.02-.007-.059-.02-.022-.007-.06-.02-.016-.006-.055-.018-.016-.005a1.16 1.16 0 0 0-.062-.02l-.016-.005-.062-.021-.019-.006a1.2 1.2 0 0 1-.063-.021l-.01-.003-.063-.02-.01-.003-.067-.023-.015-.003a1.311 1.311 0 0 0-.066-.021l-.013-.004a1.366 1.366 0 0 0-.068-.022 1.15 1.15 0 0 0-.073-.022l-.009-.004-.069-.021-.01-.004-.07-.02-.007-.004-.072-.022h-.002l-.073-.022-.008-.003-.073-.022-.005-.001-.151-.046h-.003l-.077-.022-.002-.001a15.73 15.73 0 0 0-.233-.068h-.002c-.593-.169-1.276-.205-1.888-.347a38.855 38.855 0 0 0-3.347-.618c-.66-.092-1.25-.293-1.931-.355.43.04.8.228 1.221.293a42.141 42.141 0 0 0-5.25-.469c-.016 0-.029-.008-.044-.008h-.35l-.054.002h-.18l-.041.001h-.09l-.052.001h-.091c-.013.002-.026.002-.04.002h-.141l-.04.002h-.05l-.04.001h-.051a.354.354 0 0 1-.038.002l-.053.001h-.037l-.059.001h-.03c-.023.002-.039.002-.062.002a.211.211 0 0 1-.029.001c-.09.001-.178.004-.27.007h-.088a.202.202 0 0 1-.028.002l-.06.001-.031.002-.06.001-.03.001-.059.002a.25.25 0 0 1-.031 0l-.058.002a.273.273 0 0 1-.032.002c-.02 0-.038 0-.057.002h-.032l-.057.003a.251.251 0 0 0-.031.001l-.059.001a.241.241 0 0 1-.03.002c-.02 0-.039 0-.058.002a.262.262 0 0 0-.032.002h-.058a.211.211 0 0 1-.029.002l-.062.003-.025.001-.066.003-.023.001a1.18 1.18 0 0 0-.066.003h-.022c-.026 0-.048.002-.074.003h-.013l-.446.023h-.001l-.086.004h-.01l-.076.005h-.017l-.071.004h-.017l-.07.005-.018.001-.072.004-.013.001-.073.004-.017.002-.073.003-.012.002-.075.004-.013.001-.076.004-.012.001-.075.005h-.012l-.083.007h-.002c-.381.025-.757.053-1.131.085h-.003l-.083.007h-.003l-.083.008h-.003c-1.035.091-1.884.365-2.87.504-1.458.207-2.887.438-4.243.746-.703.159-1.527.2-2.203.387h-.001c-.025.006-.046.013-.07.02l-.01.002-.06.017-.018.005-.053.014-.022.007-.05.013a.11.11 0 0 1-.022.006l-.047.015a.207.207 0 0 1-.027.006l-.043.013-.03.008-.04.012-.032.009c-.013.004-.024.008-.036.01l-.035.01-.034.011a.318.318 0 0 0-.038.01l-.027.008a.598.598 0 0 1-.046.013l-.017.006-.054.015-.004.002q-1.811.533-3.494 1.187c-.08.057-.14.107-.219.164-12.813 5.074-20.3 15.249-25.795 26.763a72.558 72.558 0 0 0-2.048 4.35c-.026.062-.055.119-.081.18l-.037.08-.295.701c-.014.035-.007.073-.021.108A202.213 202.213 0 0 0 120 384h1.401a21.217 21.217 0 0 0 40.78 9.318 50.707 50.707 0 0 1 4.562-8.913l-.007.001a9.93 9.93 0 0 1 2.428-.364 50.51 50.51 0 0 1 5.145 9.479c.056.129.113.255.173.383q.08.195.164.39c3.05 7.052 5.88 15.543 8.877 24.531 7.157 21.47 15.269 45.806 31.5 64.525a21.27 21.27 0 0 0 14.801 7.317h2.651a21.335 21.335 0 0 0 14.787-35.266z" style="fill:#e4dbff"/><rect x="21.333" y="320" width="64" height="42.667" rx="21.333" ry="21.333" style="fill:#9a7bff"/><path d="M222.565 294.37a527.504 527.504 0 0 0-3.795-10.996l-.007-.02-.02-.056-.013-.035a.56.56 0 0 1-.018-.05l-.013-.036-.017-.045c-.006-.015-.013-.04-.02-.054l-.008-.027-.03-.084h-.002a41.668 41.668 0 0 0-.131-.364v-.003c-3.645-10.044-7.664-19.526-12.78-27.362-.1-.15-.198-.297-.3-.444a19.782 19.782 0 0 0-.321-.49q-.455-.673-.92-1.329l-.007-.009-.058-.08-.003-.005-.06-.084-.003-.004-.055-.076a.265.265 0 0 0-.017-.023c-.013-.02-.027-.038-.04-.056a2.497 2.497 0 0 1-.063-.087l-.02-.029a2.687 2.687 0 0 1-.102-.14l-.031-.042-.022-.03-.124-.17-.012-.015-.041-.056-.01-.014c-.065-.086-.127-.171-.19-.257l-.003-.004a54.731 54.731 0 0 0-3.69-4.444l-.002-.002-.052-.056-.004-.006-.157-.166-.006-.007-.046-.05-.015-.015-.045-.048-.01-.012-.095-.097-.009-.01-.039-.042-.024-.025-.038-.04-.026-.027-.035-.037-.038-.04c-.017-.016-.034-.035-.05-.052a.803.803 0 0 0-.033-.033.754.754 0 0 1-.032-.033l-.035-.036-.028-.029-.047-.048a.407.407 0 0 1-.024-.025c-.02-.018-.038-.038-.056-.057a.177.177 0 0 1-.022-.022l-.045-.046c-.008-.008-.015-.016-.023-.022a1.977 1.977 0 0 0-.052-.053l-.013-.013c-.022-.024-.045-.046-.067-.068l-.008-.008-.06-.061-.014-.013-.059-.06-.01-.008a14.432 14.432 0 0 0-.141-.14l-.003-.003-.069-.07-.004-.002q-.837-.826-1.712-1.599c-.682-.603-1.573-.892-2.288-1.444a37.469 37.469 0 0 0-5.734-3.622c-.875-.452-1.561-1.185-2.482-1.567l-.005-.002-.08-.033-.003-.001a5.071 5.071 0 0 0-.125-.052l-.008-.003-.074-.03-.01-.005-.081-.031-.002-.001a.554.554 0 0 1-.041-.017l-.006-.002-.076-.03-.013-.006-.067-.026-.017-.007-.12-.046-.018-.007a.921.921 0 0 0-.064-.025l-.018-.008c-.02-.006-.039-.014-.058-.022l-.024-.009-.036-.013-.03-.013-.051-.018-.025-.01-.053-.02-.028-.01-.036-.013a.653.653 0 0 0-.046-.017l-.03-.012-.04-.014-.04-.016-.033-.012-.041-.015c-.013-.004-.026-.01-.038-.013l-.031-.012-.05-.018-.03-.01-.038-.015-.039-.013-.039-.014a.234.234 0 0 1-.027-.01l-.052-.019a.186.186 0 0 1-.029-.01l-.053-.019-.025-.009a.598.598 0 0 1-.044-.015l-.024-.008-.053-.018a.174.174 0 0 1-.024-.01l-.058-.02-.021-.006-.056-.02-.02-.006-.052-.018-.02-.006c-.017-.007-.038-.013-.058-.02l-.022-.008-.06-.02-.017-.006-.054-.018-.016-.005a1.16 1.16 0 0 0-.063-.02l-.015-.005-.063-.02-.018-.007a1.2 1.2 0 0 1-.064-.021l-.009-.003-.064-.02-.01-.003-.066-.022-.015-.004c-.023-.008-.043-.015-.066-.021l-.013-.004a1.366 1.366 0 0 0-.068-.022h-.001a1.15 1.15 0 0 0-.072-.022l-.009-.004-.069-.02-.01-.005-.07-.02-.007-.003-.072-.022h-.002l-.073-.023-.008-.002-.073-.022-.005-.002-.151-.045h-.003l-.077-.022-.002-.002a15.73 15.73 0 0 0-.233-.067h-.002a39.043 39.043 0 0 0-7.166-1.32 21.154 21.154 0 0 1 4.342.966 40.17 40.17 0 0 0-6.512-.886c-.644-.06-1.243-.263-1.903-.264h-.35l-.054.001h-.18l-.041.001h-.09l-.052.002h-.091a.39.39 0 0 1-.04.001h-.05l-.04.001h-.051l-.04.002h-.141a.354.354 0 0 1-.038.002c-.018 0-.035 0-.053.002h-.125c-.024.002-.04.002-.063.002a.211.211 0 0 1-.029.001l-.27.007h-.013l-.075.001a.2.2 0 0 1-.028.002h-.06l-.031.002-.059.001-.03.002-.06.001a.251.251 0 0 1-.031.001l-.057.002a.273.273 0 0 1-.033 0l-.057.004h-.032c-.02 0-.037 0-.057.002a.251.251 0 0 0-.031.001l-.059.002a.241.241 0 0 1-.03.001c-.02.001-.039.001-.058.003a.262.262 0 0 0-.032.001l-.058.001a.211.211 0 0 1-.029.002c-.022 0-.04 0-.062.002l-.025.001-.066.003-.023.001a1.18 1.18 0 0 0-.066.003l-.022.001c-.026 0-.048.002-.074.003h-.013l-.446.022-.087.004-.01.001-.076.004h-.017l-.071.004-.017.001-.07.004-.018.002-.072.003-.013.002-.073.004-.017.001-.073.004-.012.001-.075.004-.013.001-.076.004-.012.002c-.026 0-.05.002-.075.005h-.012l-.083.006h-.002c-.381.025-.757.054-1.131.085h-.003l-.083.008h-.003l-.083.007h-.003a52.515 52.515 0 0 0-9.316 1.637h-.001l-.07.02-.01.002-.06.017-.018.005-.053.015-.022.006-.05.013a.11.11 0 0 1-.022.007l-.047.014a.21.21 0 0 1-.027.007l-.043.013-.03.007-.04.012-.032.01-.036.01-.035.01-.034.01a.32.32 0 0 0-.038.01l-.027.009a.593.593 0 0 1-.046.013l-.017.005-.054.016h-.004q-1.811.534-3.494 1.188a21.333 21.333 0 1 0 15.431 39.779 9.396 9.396 0 0 1 2.444-.37 23.846 23.846 0 0 1 .71 1.01c.041.066.083.13.126.196 4.319 6.626 8.354 18.134 12.116 29.353a21.333 21.333 0 1 0 40.453-13.565z" style="fill:#d1c2ff"/><circle cx="85.333" cy="170.667" r="21.333" style="fill:#d1c2ff"/><path d="M455.615 277.333a34.135 34.135 0 0 0-13.72 2.802c-13.28 5.79-46.254 18.532-79.228 18.532h-.301l-.136-.002H361.79l-.017-.002h-.148c-.04-.002-.078-.002-.117-.002h-.154a.191.191 0 0 1-.027-.002h-.113a.262.262 0 0 0-.033-.001c-.036 0-.076 0-.112-.002h-.034l-.114-.001-.045-.001c-.034 0-.064 0-.097-.002h-.043l-.1-.002h-.057c-.03-.002-.058-.002-.09-.002h-.058c-.029-.002-.053-.002-.082-.002l-.074-.001c-.021-.002-.043-.002-.064-.002l-.087-.002c-.019 0-.038 0-.056-.002l-.086-.001-.068-.001c-.035-.002-.07-.002-.107-.003h-.023a3.143 3.143 0 0 0-.11-.002l-.02-.002q-.845-.02-1.69-.05-.407-.016-.813-.016a21.334 21.334 0 0 0-.785 42.652q3.148.117 6.3.117c33.37 0 65.305-9.78 85.874-17.795a21.336 21.336 0 0 0 42.127-4.792v-6.36a35.053 35.053 0 0 0-35.052-35.053z" style="fill:#1300a0"/></svg>
